<?xml version="1.0" encoding="utf-8"?>
<!-- Generator: Adobe Illustrator 23.0.2, SVG Export Plug-In . SVG Version: 6.00 Build 0)  -->
<svg version="1.1" id="Calque_1" xmlns="http://www.w3.org/2000/svg" xmlns:xlink="http://www.w3.org/1999/xlink" x="0px" y="0px"
	 viewBox="0 0 148.25 20.1" style="enable-background:new 0 0 148.25 20.1;" xml:space="preserve">
<style type="text/css">
	.Voûte _x002D__x0020_Vert{fill:url(#SVGID_1_);stroke:#FFFFFF;stroke-width:0.25;stroke-miterlimit:1;}
</style>
<linearGradient id="SVGID_1_" gradientUnits="userSpaceOnUse" x1="-346.8198" y1="307.0966" x2="-346.1127" y2="306.3895">
	<stop  offset="0" style="stop-color:#1DA242"/>
	<stop  offset="0.9831" style="stop-color:#182F19"/>
</linearGradient>
<g>
	<g>
		<path d="M43.33,0.64v7.05h-9.54V0.63h-3.71v18.94h3.71v-8.01h9.54v8.01h3.68V0.64H43.33z"/>
		<path d="M66.15,0.64v9.88c0,2.87-0.3,5.92-5,5.92c-4.71,0-5.04-2.98-5.04-5.92V0.64h-3.69v10.12c0,4.52,1.26,9.34,8.73,9.34
			c7.47,0,8.72-4.89,8.72-9.34V0.64H66.15z"/>
		<path d="M96.99,0.64v18.93h12.78v-3.83c0,0-8.13,0-9.07,0V0.64H96.99z"/>
		<path d="M121.06,0.1c-5.69,0-10.15,4.37-10.15,9.95c0,5.58,4.46,9.95,10.15,9.95c5.69,0,10.15-4.37,10.15-9.95
			C131.21,4.47,126.75,0.1,121.06,0.1z M121.06,16.35c-3.6,0-6.43-2.77-6.43-6.3s2.82-6.3,6.43-6.3s6.43,2.77,6.43,6.3
			S124.67,16.35,121.06,16.35z"/>
		<path d="M132.72,0.64v3.85h5.95v15.08h3.71V4.49h5.8V0.64H132.72z"/>
		<g>
			<path d="M89.27,9.64c1.15-0.89,1.8-2.2,1.8-3.78c0-1.57-0.64-5.23-6.52-5.23h-9.73v18.93h10.35c4.17,0,6.56-2.1,6.56-5.76
				C91.72,12.03,90.87,10.6,89.27,9.64z M84.36,4.11c2.06,0,2.7,0.75,2.7,2c0,1.25-0.55,2.13-2.62,2.13l-5.94,0V4.11H84.36z
				 M84.93,16.11H78.5l0-4.76h6.46c1.91,0,2.74,0.75,2.74,2.45C87.7,15.08,87.18,16.11,84.93,16.11z"/>
		</g>
	</g>
	<path d="M18.96,0.64h-2.02c0,3.67-0.92,5.33-2.85,6.48V0.63h-3.11v7.83c-0.58,0.2-1.2,0.41-1.87,0.64
		C8.73,9.24,8.37,9.36,8.02,9.49V0.63H4.91v10.15c-3.14,1.6-4.84,3.8-4.84,8.78h2.02c0-3.4,0.83-5.08,2.83-6.34v6.34h3.11v-7.77
		c0.53-0.2,1.09-0.39,1.7-0.6c0.43-0.15,0.85-0.29,1.26-0.43v8.81h3.11V9.53C17.05,8.1,18.96,5.96,18.96,0.64z"/>
</g>
</svg>
