<?xml version="1.0" encoding="utf-8"?>
<!-- Generator: Adobe Illustrator 22.0.0, SVG Export Plug-In . SVG Version: 6.00 Build 0)  -->
<svg version="1.1" id="svg3721" xmlns:svg="http://www.w3.org/2000/svg"
	 xmlns="http://www.w3.org/2000/svg" xmlns:xlink="http://www.w3.org/1999/xlink" x="0px" y="0px" viewBox="0 0 427.9 78.4"
	 style="enable-background:new 0 0 427.9 78.4;" xml:space="preserve">
<path id="path80" d="M64.9,11.7h-5.7c0,10.4-2.6,15.1-8.1,18.4V11.7h-8.8v22.2c-1.6,0.6-3.4,1.2-5.3,1.8C36,36.1,35,36.4,34,36.8
	V11.7h-8.8v28.7C16.3,45,11.5,51.2,11.5,65.3h5.7c0-9.6,2.4-14.4,8-17.9v18H34v-22c1.5-0.6,3.1-1.1,4.8-1.7c1.2-0.4,2.4-0.8,3.6-1.2
	v24.9h8.8V36.9C59.5,32.9,64.9,26.8,64.9,11.7 M238.7,55.4h-17.8l0-13.2h17.9c5.3,0,7.6,2.1,7.6,6.8
	C246.3,52.5,244.9,55.4,238.7,55.4 M237.1,22.1c5.7,0,7.5,2.1,7.5,5.5c0,3.5-1.5,5.9-7.3,5.9l-16.5,0V22.1L237.1,22.1L237.1,22.1z
	 M250.7,37.4c3.2-2.5,5-6.1,5-10.5c0-4.4-1.8-14.5-18.1-14.5h-27v52.5h28.7c11.5,0,18.2-5.8,18.2-16C257.5,44,255.1,40.1,250.7,37.4
	 M371.1,12.5v10.7h16.5v41.8h10.3V23.1H414V12.5H371.1z M338.8,56c-10,0-17.8-7.7-17.8-17.5s7.8-17.5,17.8-17.5
	c10,0,17.8,7.7,17.8,17.5S348.8,56,338.8,56 M338.8,11c-15.8,0-28.1,12.1-28.1,27.6c0,15.5,12.4,27.6,28.1,27.6
	c15.8,0,28.1-12.1,28.1-27.6C366.9,23.1,354.6,11,338.8,11 M272.1,12.5v52.5h35.4V54.3h-25.1V12.5H272.1z M186.6,12.5v27.4
	c0,8-0.8,16.4-13.9,16.4c-13.1,0-14-8.3-14-16.4V12.5h-10.2v28c0,12.5,3.5,25.9,24.2,25.9c20.7,0,24.2-13.6,24.2-25.9v-28H186.6
	L186.6,12.5z M123.3,12.5V32H96.9V12.4H86.6v52.5h10.3V42.7h26.4v22.2h10.2V12.5H123.3z"/>
</svg>
